{
  "asset": {
    "generator": "Khronos glTF Blender I/O v3.3.32",
    "version": "2.0"
  },
  "scene": 0,
  "scenes": [
    {
      "name": "Scene",
      "nodes": [
        4
      ]
    }
  ],
  "nodes": [
    {
      "mesh": 0,
      "name": "vintage_hand_drill_cog1",
      "translation": [
        0,
        0.058267876505851746,
        -0.000007236869350890629
      ]
    },
    {
      "mesh": 1,
      "name": "vintage_hand_drill_cog2",
      "translation": [
        0,
        -0.05881604552268982,
        -0.000007235594694066094
      ]
    },
    {
      "mesh": 2,
      "name": "vintage_hand_drill_crank",
      "rotation": [
        0,
        -1,
        0,
        1.9470718370939721e-7
      ],
      "translation": [
        -0.0002934641088359058,
        -0.00037671500467695296,
        0.019585154950618744
      ]
    },
    {
      "mesh": 3,
      "name": "vintage_hand_drill_head",
      "translation": [
        0,
        -0.10317418724298477,
        0
      ]
    },
    {
      "children": [
        0,
        1,
        2,
        3
      ],
      "mesh": 4,
      "name": "vintage_hand_drill"
    }
  ],
  "materials": [
    {
      "doubleSided": true,
      "name": "vintage_hand_drill",
      "normalTexture": {
        "index": 0
      },
      "pbrMetallicRoughness": {
        "baseColorTexture": {
          "index": 1
        },
        "metallicRoughnessTexture": {
          "index": 2
        }
      }
    }
  ],
  "meshes": [
    {
      "name": "Cylinder.084",
      "primitives": [
        {
          "attributes": {
            "POSITION": 0,
            "NORMAL": 1,
            "TEXCOORD_0": 2
          },
          "indices": 3,
          "material": 0
        }
      ]
    },
    {
      "name": "Cylinder.085",
      "primitives": [
        {
          "attributes": {
            "POSITION": 4,
            "NORMAL": 5,
            "TEXCOORD_0": 6
          },
          "indices": 7,
          "material": 0
        }
      ]
    },
    {
      "name": "Cylinder.099",
      "primitives": [
        {
          "attributes": {
            "POSITION": 8,
            "NORMAL": 9,
            "TEXCOORD_0": 10
          },
          "indices": 11,
          "material": 0
        }
      ]
    },
    {
      "name": "Cylinder.101",
      "primitives": [
        {
          "attributes": {
            "POSITION": 12,
            "NORMAL": 13,
            "TEXCOORD_0": 14
          },
          "indices": 15,
          "material": 0
        }
      ]
    },
    {
      "name": "Cylinder.087",
      "primitives": [
        {
          "attributes": {
            "POSITION": 16,
            "NORMAL": 17,
            "TEXCOORD_0": 18
          },
          "indices": 19,
          "material": 0
        }
      ]
    }
  ],
  "textures": [
    {
      "sampler": 0,
      "source": 0
    },
    {
      "sampler": 0,
      "source": 1
    },
    {
      "sampler": 0,
      "source": 2
    }
  ],
  "images": [
    {
      "mimeType": "image/jpeg",
      "name": "vintage_hand_drill_nor_gl",
      "uri": "textures/vintage_hand_drill_nor_gl_1k.jpg"
    },
    {
      "mimeType": "image/jpeg",
      "name": "vintage_hand_drill_diff",
      "uri": "textures/vintage_hand_drill_diff_1k.jpg"
    },
    {
      "mimeType": "image/jpeg",
      "name": "vintage_hand_drill_metal-vintage_hand_drill_rough",
      "uri": "textures/vintage_hand_drill_arm_1k.jpg"
    }
  ],
  "accessors": [
    {
      "bufferView": 0,
      "componentType": 5126,
      "count": 760,
      "max": [
        0.017591753974556923,
        0.013723953627049923,
        0.017591753974556923
      ],
      "min": [
        -0.017591753974556923,
        -0.00878504104912281,
        -0.017591753974556923
      ],
      "type": "VEC3"
    },
    {
      "bufferView": 1,
      "componentType": 5126,
      "count": 760,
      "type": "VEC3"
    },
    {
      "bufferView": 2,
      "componentType": 5126,
      "count": 760,
      "type": "VEC2"
    },
    {
      "bufferView": 3,
      "componentType": 5123,
      "count": 1542,
      "type": "SCALAR"
    },
    {
      "bufferView": 4,
      "componentType": 5126,
      "count": 760,
      "max": [
        0.018879195675253868,
        0.011246774345636368,
        0.018879186362028122
      ],
      "min": [
        -0.018879178911447525,
        -0.008206627331674099,
        -0.01887918822467327
      ],
      "type": "VEC3"
    },
    {
      "bufferView": 5,
      "componentType": 5126,
      "count": 760,
      "type": "VEC3"
    },
    {
      "bufferView": 6,
      "componentType": 5126,
      "count": 760,
      "type": "VEC2"
    },
    {
      "bufferView": 7,
      "componentType": 5123,
      "count": 1542,
      "type": "SCALAR"
    },
    {
      "bufferView": 8,
      "componentType": 5126,
      "count": 3732,
      "max": [
        0.06194807216525078,
        0.06194699928164482,
        0.00348010566085577
      ],
      "min": [
        -0.06929272413253784,
        -0.12232501804828644,
        -0.04448660463094711
      ],
      "type": "VEC3"
    },
    {
      "bufferView": 9,
      "componentType": 5126,
      "count": 3732,
      "type": "VEC3"
    },
    {
      "bufferView": 10,
      "componentType": 5126,
      "count": 3732,
      "type": "VEC2"
    },
    {
      "bufferView": 11,
      "componentType": 5123,
      "count": 9552,
      "type": "SCALAR"
    },
    {
      "bufferView": 12,
      "componentType": 5126,
      "count": 1494,
      "max": [
        0.015440404415130615,
        0,
        0.015440404415130615
      ],
      "min": [
        -0.015440404415130615,
        -0.1326800137758255,
        -0.015440404415130615
      ],
      "type": "VEC3"
    },
    {
      "bufferView": 13,
      "componentType": 5126,
      "count": 1494,
      "type": "VEC3"
    },
    {
      "bufferView": 14,
      "componentType": 5126,
      "count": 1494,
      "type": "VEC2"
    },
    {
      "bufferView": 15,
      "componentType": 5123,
      "count": 4488,
      "type": "SCALAR"
    },
    {
      "bufferView": 16,
      "componentType": 5126,
      "count": 2086,
      "max": [
        0.03376451134681702,
        0.24983015656471252,
        0.028979478403925896
      ],
      "min": [
        -0.03376451134681702,
        -0.10344428569078445,
        -0.061049431562423706
      ],
      "type": "VEC3"
    },
    {
      "bufferView": 17,
      "componentType": 5126,
      "count": 2086,
      "type": "VEC3"
    },
    {
      "bufferView": 18,
      "componentType": 5126,
      "count": 2086,
      "type": "VEC2"
    },
    {
      "bufferView": 19,
      "componentType": 5123,
      "count": 7890,
      "type": "SCALAR"
    }
  ],
  "bufferViews": [
    {
      "buffer": 0,
      "byteLength": 9120,
      "byteOffset": 0,
      "target": 34962
    },
    {
      "buffer": 0,
      "byteLength": 9120,
      "byteOffset": 9120,
      "target": 34962
    },
    {
      "buffer": 0,
      "byteLength": 6080,
      "byteOffset": 18240,
      "target": 34962
    },
    {
      "buffer": 0,
      "byteLength": 3084,
      "byteOffset": 24320,
      "target": 34963
    },
    {
      "buffer": 0,
      "byteLength": 9120,
      "byteOffset": 27404,
      "target": 34962
    },
    {
      "buffer": 0,
      "byteLength": 9120,
      "byteOffset": 36524,
      "target": 34962
    },
    {
      "buffer": 0,
      "byteLength": 6080,
      "byteOffset": 45644,
      "target": 34962
    },
    {
      "buffer": 0,
      "byteLength": 3084,
      "byteOffset": 51724,
      "target": 34963
    },
    {
      "buffer": 0,
      "byteLength": 44784,
      "byteOffset": 54808,
      "target": 34962
    },
    {
      "buffer": 0,
      "byteLength": 44784,
      "byteOffset": 99592,
      "target": 34962
    },
    {
      "buffer": 0,
      "byteLength": 29856,
      "byteOffset": 144376,
      "target": 34962
    },
    {
      "buffer": 0,
      "byteLength": 19104,
      "byteOffset": 174232,
      "target": 34963
    },
    {
      "buffer": 0,
      "byteLength": 17928,
      "byteOffset": 193336,
      "target": 34962
    },
    {
      "buffer": 0,
      "byteLength": 17928,
      "byteOffset": 211264,
      "target": 34962
    },
    {
      "buffer": 0,
      "byteLength": 11952,
      "byteOffset": 229192,
      "target": 34962
    },
    {
      "buffer": 0,
      "byteLength": 8976,
      "byteOffset": 241144,
      "target": 34963
    },
    {
      "buffer": 0,
      "byteLength": 25032,
      "byteOffset": 250120,
      "target": 34962
    },
    {
      "buffer": 0,
      "byteLength": 25032,
      "byteOffset": 275152,
      "target": 34962
    },
    {
      "buffer": 0,
      "byteLength": 16688,
      "byteOffset": 300184,
      "target": 34962
    },
    {
      "buffer": 0,
      "byteLength": 15780,
      "byteOffset": 316872,
      "target": 34963
    }
  ],
  "samplers": [
    {
      "magFilter": 9729,
      "minFilter": 9987
    }
  ],
  "buffers": [
    {
      "byteLength": 332652,
      "uri": "vintage_hand_drill.bin"
    }
  ]
}