# Exported from Figuro at https://www.figuro.io

mtllib newscene.mtl
o cube156
v -128 -9.916308058486827 -128
v 128 -9.916308058486827 -128
v 128 9.916308058486827 -128
v -128 9.916308058486827 -128
v 128 -9.916308058486827 128
v 128 9.916308058486827 128
v -128 -9.916308058486827 128
v -128 9.916308058486827 128
# 8 vertices
vt 0.5 0.9612644216465358
vt -0.5 0.9612644216465358
vt -0.5 1.0387355783534642
vt 0.5 1.0387355783534642
vt 0.5 0.9612644216465358
vt -0.5 0.9612644216465358
vt -0.5 1.0387355783534642
vt 0.5 1.0387355783534642
vt 0.5 0.9612644216465358
vt -0.5 0.9612644216465358
vt -0.5 1.0387355783534642
vt 0.5 1.0387355783534642
vt 0.5 0.9612644216465358
vt -0.5 0.9612644216465358
vt -0.5 1.0387355783534642
vt 0.5 1.0387355783534642
vt -0.5 1.5
vt 0.5 1.5
vt 0.5 0.5
vt -0.5 0.5
vt -0.5 1.5
vt 0.5 1.5
vt 0.5 0.5
vt -0.5 0.5
# 24 uvs
vn -0.3333333333333333 -0.3333333333333333 -0.3333333333333333
vn 0.3333333333333333 -0.3333333333333333 -0.3333333333333333
vn 0.3333333333333333 0.3333333333333333 -0.3333333333333333
vn -0.3333333333333333 0.3333333333333333 -0.3333333333333333
vn 0.3333333333333333 -0.3333333333333333 0.3333333333333333
vn 0.3333333333333333 0.3333333333333333 0.3333333333333333
vn -0.3333333333333333 -0.3333333333333333 0.3333333333333333
vn -0.3333333333333333 0.3333333333333333 0.3333333333333333
# 8 normals
usemtl d1b054
f 4/4/4 3/3/3 2/2/2 1/1/1 
f 3/8/3 6/7/6 5/6/5 2/5/2 
f 6/12/6 8/11/8 7/10/7 5/9/5 
f 8/16/8 4/15/4 1/14/1 7/13/7 
f 1/20/1 2/19/2 5/18/5 7/17/7 
f 8/24/8 6/23/6 3/22/3 4/21/4 
# 6 polygons
o cube156
v -128 266.62317316535757 -128.67901187946927
v 127.99999999999997 266.62317316535757 -128.67901187946927
v 127.99999999999997 266.62317316535757 -108.84639576249562
v -128 266.62317316535757 -108.84639576249562
v 128 109.16817825639073 -128.67901187946927
v 128 109.16817825639073 -108.84639576249562
v -127.99999999999997 109.1681782563907 -128.67901187946927
v -127.99999999999997 109.1681782563907 -108.84639576249562
# 8 vertices
vt -0.5 1.5026523901541768
vt 0.4999999999999999 1.5026523901541768
vt 0.4999999999999999 1.4251812334472485
vt -0.5 1.4251812334472485
vt 0.5026523901541768 2.041496770177178
vt 0.5026523901541768 1.4264381963140262
vt 0.4251812334472485 1.4264381963140262
vt 0.4251812334472485 2.041496770177178
vt 0.5 0.49734760984582316
vt -0.4999999999999999 0.49734760984582316
vt -0.4999999999999999 0.5748187665527515
vt 0.5 0.5748187665527515
vt -0.5026523901541768 1.4264381963140262
vt -0.5026523901541768 2.041496770177178
vt -0.4251812334472485 2.041496770177178
vt -0.4251812334472485 1.4264381963140262
vt 0.4999999999999999 1.4264381963140262
vt -0.5 1.4264381963140262
vt -0.4999999999999999 2.041496770177178
vt 0.5 2.041496770177178
vt -0.5 2.041496770177178
vt 0.4999999999999999 2.041496770177178
vt 0.5 1.4264381963140262
vt -0.4999999999999999 1.4264381963140262
# 24 uvs
vn -0.3333333333333333 0.33333333333333326 -0.3333333333333333
vn 0.33333333333333326 0.3333333333333333 -0.3333333333333333
vn 0.3333333333333333 0.3333333333333333 0.3333333333333333
vn -0.33333333333333326 0.33333333333333326 0.3333333333333333
vn 0.3333333333333333 -0.33333333333333326 -0.3333333333333333
vn 0.3333333333333333 -0.33333333333333326 0.3333333333333333
vn -0.3333333333333333 -0.3333333333333333 -0.3333333333333333
vn -0.3333333333333332 -0.3333333333333333 0.3333333333333333
# 8 normals
usemtl d1b054
f 12/28/12 11/27/11 10/26/10 9/25/9 
f 11/32/11 14/31/14 13/30/13 10/29/10 
f 14/36/14 16/35/16 15/34/15 13/33/13 
f 16/40/16 12/39/12 9/38/9 15/37/15 
f 9/44/9 10/43/10 13/42/13 15/41/15 
f 16/48/16 14/47/14 11/46/11 12/45/12 
# 6 polygons
o cube156
v 100.23956264746727 3.198395943795166 -125.91514924843418
v 76.99239188261717 4.6254020676904695 -125.9151492484338
v 76.99239188261699 4.62540206769048 -102.23750284707583
v 100.23956264746727 3.198395943795166 -102.23750284707589
v 60.055267008356196 -271.29509163190545 -125.9151492484338
v 60.055267008356196 -271.29509163190545 -102.23750284707583
v 83.30243777320634 -272.72209775580075 -125.91514924843418
v 83.30243777320634 -272.72209775580075 -102.23750284707589
# 8 vertices
vt 0.391560791591669 1.3993652454963903
vt 0.3007515307914726 1.3993652454963899
vt 0.3007515307914733 1.4918560517516946
vt 0.391560791591669 1.491856051751696
vt -0.39936524549638996 1.0180679768269159
vt -0.39936524549638996 -0.059746451687130664
vt -0.49185605175169456 -0.059746451687130664
vt -0.49185605175169456 1.0180679768269159
vt 0.2345908867513914 0.60063475450361
vt 0.32540014755158725 0.6006347545036098
vt 0.32540014755158725 0.508143948248304
vt 0.2345908867513914 0.5081439482483054
vt 0.3993652454963902 -0.06532069435859666
vt 0.3993652454963902 1.0124937341554499
vt 0.491856051751696 1.0124937341554499
vt 0.491856051751696 -0.06532069435859666
vt -0.391560791591669 1.0124937341554499
vt -0.3007515307914733 1.0180679768269159
vt -0.2345908867513914 -0.059746451687130664
vt -0.32540014755158725 -0.06532069435859666
vt 0.32540014755158725 -0.06532069435859666
vt 0.2345908867513914 -0.059746451687130664
vt 0.3007515307914726 1.0180679768269159
vt 0.391560791591669 1.0124937341554499
# 24 uvs
vn 0.35313002009082833 0.3122841832896282 -0.3333333333333333
vn -0.31228418328963287 0.3531300200908336 -0.33333333333333465
vn -0.31228418328962676 0.35313002009083316 0.333333333333332
vn 0.35313002009083444 0.3122841832896278 0.3333333333333333
vn -0.35313002009083866 -0.31228418328962754 -0.33333333333333465
vn -0.35313002009083255 -0.31228418328962787 0.333333333333332
vn 0.31228418328962254 -0.35313002009083294 -0.3333333333333333
vn 0.3122841832896286 -0.3531300200908334 0.3333333333333333
# 8 normals
usemtl d1b054
f 17/52/17 18/51/18 19/50/19 20/49/20 
f 18/56/18 21/55/21 22/54/22 19/53/19 
f 21/60/21 23/59/23 24/58/24 22/57/22 
f 23/64/23 17/63/17 20/62/20 24/61/24 
f 23/68/23 21/67/21 18/66/18 17/65/17 
f 20/72/20 19/71/19 22/70/22 24/69/24 
# 6 polygons
o cube156
v -79.51397555455462 152.32669701598786 -128.67901187946927
v -55.659914368712336 152.32669701598786 -128.67901187946921
v -55.659914368712336 152.32669701598786 -108.8463957624956
v -79.51397555455462 152.32669701598786 -108.84639576249563
v -55.659914368712336 -5.128297892979047 -128.67901187946921
v -55.659914368712336 -5.128297892979047 -108.8463957624956
v -79.51397555455462 -5.128297892979047 -128.67901187946927
v -79.51397555455462 -5.128297892979047 -108.84639576249563
# 8 vertices
vt -0.310601467009979 1.5026523901541768
vt -0.21742154050278256 1.5026523901541766
vt -0.21742154050278256 1.4251812334472485
vt -0.310601467009979 1.4251812334472485
vt 0.5026523901541766 1.5950261602187026
vt 0.5026523901541766 0.9799675863555506
vt 0.42518123344724845 0.9799675863555506
vt 0.42518123344724845 1.5950261602187026
vt -0.21742154050278256 0.4973476098458234
vt -0.310601467009979 0.49734760984582316
vt -0.310601467009979 0.5748187665527514
vt -0.21742154050278256 0.5748187665527515
vt -0.5026523901541768 0.9799675863555506
vt -0.5026523901541768 1.5950261602187026
vt -0.42518123344724856 1.5950261602187026
vt -0.42518123344724856 0.9799675863555506
vt 0.310601467009979 0.9799675863555506
vt 0.21742154050278256 0.9799675863555506
vt 0.21742154050278256 1.5950261602187026
vt 0.310601467009979 1.5950261602187026
vt -0.310601467009979 1.5950261602187026
vt -0.21742154050278256 1.5950261602187026
vt -0.21742154050278256 0.9799675863555506
vt -0.310601467009979 0.9799675863555506
# 24 uvs
vn -0.3333333333333323 0.3333333333333333 -0.3333333333333333
vn 0.3333333333333343 0.3333333333333333 -0.3333333333333333
vn 0.333333333333333 0.3333333333333333 0.3333333333333333
vn -0.33333333333333365 0.3333333333333333 0.3333333333333333
vn 0.3333333333333343 -0.3333333333333333 -0.3333333333333333
vn 0.333333333333333 -0.3333333333333333 0.3333333333333333
vn -0.3333333333333323 -0.3333333333333333 -0.3333333333333333
vn -0.33333333333333365 -0.3333333333333333 0.3333333333333333
# 8 normals
usemtl d1b054
f 28/76/28 27/75/27 26/74/26 25/73/25 
f 27/80/27 30/79/30 29/78/29 26/77/26 
f 30/84/30 32/83/32 31/82/31 29/81/29 
f 32/88/32 28/87/28 25/86/25 31/85/31 
f 25/92/25 26/91/26 29/90/29 31/89/31 
f 32/96/32 30/95/30 27/94/27 28/93/28 
# 6 polygons
o cube156
v 79.51397555455462 152.32669701598786 -128.67901187946927
v 55.659914368712336 152.32669701598786 -128.67901187946921
v 55.659914368712336 152.32669701598786 -108.8463957624956
v 79.51397555455462 152.32669701598786 -108.84639576249563
v 55.659914368712336 -5.128297892979047 -128.67901187946921
v 55.659914368712336 -5.128297892979047 -108.8463957624956
v 79.51397555455462 -5.128297892979047 -128.67901187946927
v 79.51397555455462 -5.128297892979047 -108.84639576249563
# 8 vertices
vt 0.310601467009979 1.4251812334472485
vt 0.21742154050278256 1.4251812334472485
vt 0.21742154050278256 1.5026523901541766
vt 0.310601467009979 1.5026523901541768
vt -0.42518123344724845 1.5950261602187026
vt -0.42518123344724845 0.9799675863555506
vt -0.5026523901541766 0.9799675863555506
vt -0.5026523901541766 1.5950261602187026
vt 0.21742154050278256 0.5748187665527515
vt 0.310601467009979 0.5748187665527514
vt 0.310601467009979 0.49734760984582316
vt 0.21742154050278256 0.4973476098458234
vt 0.42518123344724856 0.9799675863555506
vt 0.42518123344724856 1.5950261602187026
vt 0.5026523901541768 1.5950261602187026
vt 0.5026523901541768 0.9799675863555506
vt -0.310601467009979 1.5950261602187026
vt -0.21742154050278256 1.5950261602187026
vt -0.21742154050278256 0.9799675863555506
vt -0.310601467009979 0.9799675863555506
vt 0.310601467009979 0.9799675863555506
vt 0.21742154050278256 0.9799675863555506
vt 0.21742154050278256 1.5950261602187026
vt 0.310601467009979 1.5950261602187026
# 24 uvs
vn 0.3333333333333323 0.3333333333333333 -0.3333333333333333
vn -0.3333333333333343 0.3333333333333333 -0.3333333333333333
vn -0.333333333333333 0.3333333333333333 0.3333333333333333
vn 0.33333333333333365 0.3333333333333333 0.3333333333333333
vn -0.3333333333333343 -0.3333333333333333 -0.3333333333333333
vn -0.333333333333333 -0.3333333333333333 0.3333333333333333
vn 0.3333333333333323 -0.3333333333333333 -0.3333333333333333
vn 0.33333333333333365 -0.3333333333333333 0.3333333333333333
# 8 normals
usemtl d1b054
f 33/100/33 34/99/34 35/98/35 36/97/36 
f 34/104/34 37/103/37 38/102/38 35/101/35 
f 37/108/37 39/107/39 40/106/40 38/105/38 
f 39/112/39 33/111/33 36/110/36 40/109/40 
f 39/116/39 37/115/37 34/114/34 33/113/33 
f 36/120/36 35/119/35 38/118/38 40/117/40 
# 6 polygons
o cube156
v -100.23956264746727 3.198395943795166 -102.23750284707589
v -76.99239188261699 4.62540206769048 -102.23750284707583
v -76.99239188261717 4.6254020676904695 -125.9151492484338
v -100.23956264746727 3.198395943795166 -125.91514924843418
v -60.055267008356196 -271.29509163190545 -102.23750284707583
v -60.055267008356196 -271.29509163190545 -125.9151492484338
v -83.30243777320634 -272.72209775580075 -102.23750284707589
v -83.30243777320634 -272.72209775580075 -125.91514924843418
# 8 vertices
vt -0.391560791591669 1.491856051751696
vt -0.3007515307914733 1.4918560517516946
vt -0.3007515307914726 1.3993652454963899
vt -0.391560791591669 1.3993652454963903
vt 0.49185605175169456 1.0180679768269159
vt 0.49185605175169456 -0.059746451687130664
vt 0.39936524549638996 -0.059746451687130664
vt 0.39936524549638996 1.0180679768269159
vt -0.2345908867513914 0.5081439482483054
vt -0.32540014755158725 0.508143948248304
vt -0.32540014755158725 0.6006347545036098
vt -0.2345908867513914 0.60063475450361
vt -0.491856051751696 -0.06532069435859666
vt -0.491856051751696 1.0124937341554499
vt -0.3993652454963902 1.0124937341554499
vt -0.3993652454963902 -0.06532069435859666
vt 0.32540014755158725 -0.06532069435859666
vt 0.2345908867513914 -0.059746451687130664
vt 0.3007515307914733 1.0180679768269159
vt 0.391560791591669 1.0124937341554499
vt -0.391560791591669 1.0124937341554499
vt -0.3007515307914726 1.0180679768269159
vt -0.2345908867513914 -0.059746451687130664
vt -0.32540014755158725 -0.06532069435859666
# 24 uvs
vn -0.35313002009083444 0.3122841832896278 0.3333333333333333
vn 0.3122841832896267 0.3531300200908332 0.333333333333332
vn 0.31228418328963303 0.35313002009083355 -0.33333333333333465
vn -0.3531300200908281 0.3122841832896282 -0.3333333333333333
vn 0.3531300200908325 -0.312284183289628 0.333333333333332
vn 0.3531300200908389 -0.31228418328962754 -0.33333333333333465
vn -0.31228418328962865 -0.35313002009083333 0.3333333333333333
vn -0.3122841832896223 -0.353130020090833 -0.3333333333333333
# 8 normals
usemtl d1b054
f 41/124/41 42/123/42 43/122/43 44/121/44 
f 42/128/42 45/127/45 46/126/46 43/125/43 
f 45/132/45 47/131/47 48/130/48 46/129/46 
f 47/136/47 41/135/41 44/134/44 48/133/48 
f 44/140/44 43/139/43 46/138/46 48/137/48 
f 47/144/47 45/143/45 42/142/42 41/141/41 
# 6 polygons
o cube156
v -100.23956264746734 3.1983959437949188 88.73058951582343
v -76.99239188261711 4.625402067690214 88.73058951582367
v -76.99239188261714 4.625402067690213 65.05294311446535
v -100.23956264746734 3.1983959437949188 65.05294311446534
v -60.055267008356225 -271.2950916319052 88.73058951582367
v -60.055267008356296 -271.2950916319052 65.05294311446535
v -83.30243777320625 -272.7220977558005 88.73058951582343
v -83.30243777320625 -272.7220977558005 65.05294311446534
# 8 vertices
vt -0.3915607915916693 0.7458869409591198
vt -0.3007515307914732 0.7458869409591198
vt -0.3007515307914731 0.6533961347038137
vt -0.3915607915916693 0.6533961347038147
vt -0.2541130590408803 1.018067976826915
vt -0.2541130590408803 -0.059746451687129776
vt -0.3466038652961862 -0.059746451687129776
vt -0.3466038652961862 1.018067976826915
vt -0.23459088675139178 1.2541130590408802
vt -0.3254001475515869 1.2541130590408802
vt -0.3254001475515869 1.3466038652961854
vt -0.2345908867513915 1.3466038652961863
vt 0.2541130590408802 -0.06532069435859578
vt 0.2541130590408802 1.012493734155449
vt 0.34660386529618525 1.012493734155449
vt 0.34660386529618525 -0.06532069435859578
vt 0.3254001475515869 -0.06532069435859578
vt 0.23459088675139178 -0.059746451687129776
vt 0.3007515307914732 1.018067976826915
vt 0.3915607915916693 1.012493734155449
vt -0.3915607915916693 1.012493734155449
vt -0.3007515307914731 1.018067976826915
vt -0.2345908867513915 -0.059746451687129776
vt -0.3254001475515869 -0.06532069435859578
# 24 uvs
vn -0.35313002009083694 0.31228418328962737 0.3333333333333333
vn 0.31228418328962415 0.353130020090833 0.33333333333333265
vn 0.312284183289628 0.3531300200908332 -0.333333333333334
vn -0.35313002009083316 0.3122841832896276 -0.3333333333333333
vn 0.35313002009082983 -0.3122841832896281 0.33333333333333265
vn 0.35313002009083366 -0.3122841832896279 -0.333333333333334
vn -0.31228418328963126 -0.3531300200908338 0.3333333333333333
vn -0.3122841832896274 -0.35313002009083355 -0.3333333333333333
# 8 normals
usemtl d1b054
f 49/148/49 50/147/50 51/146/51 52/145/52 
f 50/152/50 53/151/53 54/150/54 51/149/51 
f 53/156/53 55/155/55 56/154/56 54/153/54 
f 55/160/55 49/159/49 52/158/52 56/157/56 
f 52/164/52 51/163/51 54/162/54 56/161/56 
f 55/168/55 53/167/53 50/166/50 49/165/49 
# 6 polygons
o cube156
v 100.23956264746734 3.1983959437949188 65.05294311446534
v 76.99239188261714 4.625402067690213 65.05294311446535
v 76.99239188261711 4.625402067690214 88.73058951582367
v 100.23956264746734 3.1983959437949188 88.73058951582343
v 60.055267008356296 -271.2950916319052 65.05294311446535
v 60.055267008356225 -271.2950916319052 88.73058951582367
v 83.30243777320625 -272.7220977558005 65.05294311446534
v 83.30243777320625 -272.7220977558005 88.73058951582343
# 8 vertices
vt 0.3915607915916693 0.6533961347038147
vt 0.3007515307914731 0.6533961347038137
vt 0.3007515307914732 0.7458869409591198
vt 0.3915607915916693 0.7458869409591198
vt 0.3466038652961862 1.018067976826915
vt 0.3466038652961862 -0.059746451687129776
vt 0.2541130590408803 -0.059746451687129776
vt 0.2541130590408803 1.018067976826915
vt 0.2345908867513915 1.3466038652961863
vt 0.3254001475515869 1.3466038652961854
vt 0.3254001475515869 1.2541130590408802
vt 0.23459088675139178 1.2541130590408802
vt -0.34660386529618525 -0.06532069435859578
vt -0.34660386529618525 1.012493734155449
vt -0.2541130590408802 1.012493734155449
vt -0.2541130590408802 -0.06532069435859578
vt -0.3915607915916693 1.012493734155449
vt -0.3007515307914732 1.018067976826915
vt -0.23459088675139178 -0.059746451687129776
vt -0.3254001475515869 -0.06532069435859578
vt 0.3254001475515869 -0.06532069435859578
vt 0.2345908867513915 -0.059746451687129776
vt 0.3007515307914731 1.018067976826915
vt 0.3915607915916693 1.012493734155449
# 24 uvs
vn 0.3531300200908331 0.31228418328962765 -0.3333333333333333
vn -0.31228418328962804 0.3531300200908332 -0.333333333333334
vn -0.3122841832896243 0.353130020090833 0.33333333333333265
vn 0.3531300200908369 0.3122841832896274 0.3333333333333333
vn -0.3531300200908338 -0.31228418328962787 -0.333333333333334
vn -0.35313002009083005 -0.3122841832896281 0.33333333333333265
vn 0.3122841832896274 -0.35313002009083355 -0.3333333333333333
vn 0.31228418328963115 -0.3531300200908338 0.3333333333333333
# 8 normals
usemtl d1b054
f 57/172/57 58/171/58 59/170/59 60/169/60 
f 58/176/58 61/175/61 62/174/62 59/173/59 
f 61/180/61 63/179/63 64/178/64 62/177/62 
f 63/184/63 57/183/57 60/182/60 64/181/64 
f 63/188/63 61/187/61 58/186/58 57/185/57 
f 60/192/60 59/191/59 62/190/62 64/189/64 
# 6 polygons